<?xml version="1.0" encoding="UTF-8"?>
<svg width="264px" height="58px" viewBox="0 0 264 58" version="1.1" xmlns="http://www.w3.org/2000/svg" xmlns:xlink="http://www.w3.org/1999/xlink">
    <!-- Generator: Sketch 54.1 (76490) - https://sketchapp.com -->
    <title>logo_tickster_white</title>
    <desc>Created with Sketch.</desc>
    <g id="logo_tickster_white" stroke="none" stroke-width="1" fill="none" fill-rule="evenodd">
        <g transform="translate(1.000000, 1.000000)" fill="#FFFFFF" id="logo">
            <g>
                <path d="M35.4811177,7.37111099 L2.78686241,7.37111099 C2.05289078,7.37111099 1.33564255,7.66467607 0.815358865,8.17658017 C0.296933333,8.69031906 -0.000371631206,9.39854481 -0.000371631206,10.1232836 L-0.000371631206,15.0955421 C-0.000371631206,15.8294548 0.289500709,16.5211675 0.817217021,17.0422455 C1.34307518,17.5614888 2.04174184,17.8477147 2.78686241,17.8477147 L14.2554014,17.8477147 L14.2554014,51.3306467 C14.2554014,52.0645594 14.5452738,52.7562721 15.0729901,53.2773501 C15.5988482,53.7965934 16.2975149,54.0828193 17.0426355,54.0828193 L23.0128908,54.0828193 C23.7561532,54.0828193 24.456678,53.7965934 24.9843943,53.2773501 C25.5102525,52.7562721 25.8001248,52.0645594 25.8001248,51.3306467 L25.8001248,17.8477147 L35.4811177,17.8477147 C36.2243801,17.8477147 36.924905,17.5614888 37.4526213,17.0422455 C37.9784794,16.5211675 38.2683518,15.8294548 38.2683518,15.0955421 L38.2683518,10.1232836 C38.2683518,9.3893709 37.9784794,8.69765819 37.4526213,8.17658017 C36.924905,7.65733694 36.2243801,7.37111099 35.4811177,7.37111099" id="Fill-1"></path>
                <path d="M47.969227,2.36307423 C46.0869149,2.35390032 44.325383,3.12083909 43.1212979,4.37032545 C41.9060638,5.61247269 41.2241206,7.3096458 41.2259787,9.09305365 C41.2241206,10.8581137 41.8503191,12.5662955 43.0488298,13.8414688 C44.2343333,15.1239812 46.016305,15.907433 47.898617,15.8945896 C49.6787305,15.9055983 51.4607021,15.2560855 52.7223901,13.9845818 C53.995227,12.7222519 54.651156,10.931505 54.6400071,9.09305365 C54.6437234,7.37569794 54.0453972,5.68586396 52.8468865,4.40885587 C51.6632411,3.12450865 49.8608298,2.34839597 47.969227,2.36307423" id="Fill-4"></path>
                <path d="M50.9197929,19.0427081 L44.9495376,19.0427081 C44.215566,19.0427081 43.4964596,19.3362731 42.978034,19.8481773 C42.4596085,20.3619161 42.1623035,21.0701419 42.1623035,21.7948807 L42.1623035,51.3311971 C42.1623035,52.0651098 42.4521759,52.7568225 42.9798922,53.2760658 C43.5057504,53.795309 44.204417,54.0833697 44.9495376,54.0833697 L50.9197929,54.0833697 C51.6630553,54.0833697 52.3635801,53.795309 52.8912965,53.2760658 C53.4171546,52.7568225 53.707027,52.0651098 53.707027,51.3311971 L53.707027,21.7948807 C53.707027,21.060968 53.4171546,20.3692553 52.8912965,19.8481773 C52.3635801,19.328934 51.6630553,19.0427081 50.9197929,19.0427081" id="Fill-6"></path>
                <path d="M92.624061,11.3182769 C91.6410965,10.813712 90.2251816,10.2430948 88.4023305,9.77155594 C86.5831957,9.30368659 84.3757064,8.94590416 81.9080752,8.94590416 C75.1871248,8.9312259 69.3487986,11.4246943 65.3128837,15.6703792 C61.267678,19.9105598 59.0471816,25.802044 59.052756,32.3668931 C59.0471816,38.8528465 61.0967277,44.5241569 64.9059475,48.5625115 C68.7021603,52.61004 74.2041603,54.879665 80.4680043,54.863152 C83.2385149,54.863152 85.6894227,54.4925261 87.7036638,54.0026393 C89.7197631,53.5072483 91.2843305,52.9017703 92.362061,52.3715184 C93.5141177,51.8009013 94.1217348,50.5183888 93.8281461,49.2817459 L92.7504156,44.7369916 C92.5627418,43.9406963 92.0183021,43.261827 91.2768979,42.900375 C90.5373518,42.5370883 89.6603021,42.5169057 88.9058908,42.8490011 C87.0421603,43.6581399 84.9182879,44.5186525 81.5494511,44.531496 C78.2902454,44.514983 75.7427135,43.3737487 73.8566851,41.3242975 C71.9836638,39.2638376 70.7461319,36.1593869 70.7405574,32.0109454 C70.7368411,28.3652341 71.7959901,25.1066617 73.6262738,22.884741 C74.5442028,21.7655242 75.6460894,20.8866637 76.9728128,20.2665075 C78.3013943,19.648186 79.869678,19.2812297 81.7649972,19.2793949 C85.0483589,19.2904036 87.0774652,20.1582554 88.4506426,20.9123507 C89.1864723,21.321507 90.0579475,21.3820548 90.8458057,21.0738115 C91.6318057,20.7674029 92.2282738,20.136238 92.480983,19.3381079 L93.9898057,14.5786841 C94.3930255,13.3108499 93.8169972,11.9347636 92.624061,11.3182769" id="Fill-8"></path>
                <path d="M118.57098,28.7953069 L131.788044,14.4748355 C132.529448,13.671201 132.722696,12.5042799 132.276739,11.5098282 C131.83264,10.5135417 130.829235,9.86953328 129.727349,9.86953328 L122.534427,9.86953328 C121.716838,9.86953328 120.932696,10.2291505 120.40498,10.8456372 L110.071774,22.9276749 L110.071774,5.517431 C110.071774,4.7835183 109.781902,4.09180558 109.256044,3.57256235 C108.730186,3.05331912 108.029661,2.76525839 107.28454,2.76525839 L101.314285,2.76525839 C100.580313,2.76525839 99.8630652,3.06065825 99.3427816,3.57256235 C98.824356,4.08446646 98.5270511,4.79452699 98.5270511,5.517431 L98.5270511,47.6605328 C98.5270511,48.3962803 98.8169234,49.087993 99.3446397,49.6072362 C99.8704979,50.1264794 100.569165,50.4127054 101.314285,50.4127054 L107.28454,50.4127054 C108.029661,50.4127054 108.728328,50.1264794 109.256044,49.6072362 C109.781902,49.087993 110.071774,48.3962803 110.071774,47.6605328 L110.071774,37.3086942 L110.631079,36.6775293 L120.260044,49.2384451 C120.782186,49.9760273 121.631363,50.4127054 122.545576,50.4127054 L129.883434,50.4127054 C130.931434,50.4127054 131.892101,49.8329144 132.367789,48.9100191 C132.843477,47.9852892 132.754285,46.877081 132.137377,46.0404205 L118.57098,28.7953069 Z" id="Fill-10"></path>
                <path d="M159.841555,30.1625863 C157.974108,28.6727435 155.751753,27.5186658 153.241384,26.4985271 C150.8072,25.4820581 149.220335,24.6068672 148.504945,23.9353371 C148.140746,23.6032416 147.973512,23.355546 147.858306,23.1005114 C147.746817,22.8454767 147.666916,22.5335638 147.665058,21.9978075 C147.676207,21.0950949 147.964221,20.4437474 148.490079,19.942852 C149.021512,19.4492957 149.90042,19.0071133 151.496576,18.9961046 C154.28381,18.9924351 156.433696,20.0731215 157.602477,20.8235472 C158.312292,21.2785731 159.181909,21.3923296 159.986491,21.1317906 C160.789214,20.8730863 161.424704,20.2749475 161.725725,19.497 L163.450094,15.0219674 C163.925782,13.7871593 163.45381,12.4000643 162.318477,11.7028472 C159.756079,10.1396132 156.13825,8.95250937 151.8552,8.94700502 C147.313867,8.94150068 143.383867,10.3946478 140.604065,12.9082988 C137.820548,15.4109411 136.254122,18.9539046 136.265271,22.7078681 C136.242973,25.7114058 137.42476,28.5663262 139.504037,30.7974208 C141.581455,33.0468632 144.44859,34.7807319 148.008817,36.1990182 C150.441143,37.1567743 151.920235,38.0631565 152.609611,38.7970692 C152.964519,39.1658603 153.155909,39.4777732 153.298987,39.8447295 C153.438349,40.2153554 153.52754,40.6685465 153.529399,41.3162245 C153.508959,42.3932414 153.191214,43.0812845 152.527852,43.6757538 C151.8552,44.2592144 150.619526,44.8096489 148.475214,44.8133185 C145.886803,44.8408402 142.813413,43.6133712 141.033299,42.5638761 C140.319767,42.1510502 139.452009,42.0739893 138.675299,42.3528762 C137.89859,42.631763 137.281682,43.2409105 137.002959,44.0096841 L135.3492,48.5544384 C134.897668,49.7984205 135.397512,51.1745068 136.547711,51.8497065 C139.714009,53.6973317 143.855838,54.8532442 148.259668,54.8642529 C153.025838,54.8660876 157.176959,53.5964187 160.205753,51.0809329 C163.245696,48.5819602 164.953342,44.816988 164.929186,40.6758857 C164.931044,38.9365126 164.650462,37.2962177 164.080009,35.7916967 C163.225257,33.5312456 161.714576,31.6524291 159.841555,30.1625863" id="Fill-12"></path>
                <path d="M187.038827,9.86879937 L183.398699,9.86879937 L183.400557,3.60118495 C183.400557,2.70948102 182.969465,1.88199446 182.235494,1.36275122 C181.499664,0.843507991 180.568728,0.707734142 179.712118,0.995794875 L173.81433,2.98469828 C172.682713,3.36633288 171.928302,4.40848891 171.928302,5.59008835 L171.928302,9.86879937 L170.530969,9.86879937 C169.796997,9.86879937 169.077891,10.1623644 168.559465,10.6742686 C168.04104,11.1880074 167.743735,11.8962332 167.743735,12.620972 L167.743735,17.2391176 C167.743735,17.9730303 168.033607,18.664743 168.561323,19.1839863 C169.087182,19.7032295 169.785848,19.9912902 170.530969,19.9912902 L171.928302,19.9912902 L171.928302,39.4693332 C171.946884,41.6105235 171.943167,45.1296349 173.5226,48.5056333 C174.316033,50.1862933 175.585153,51.8486056 177.458174,53.030205 C179.325621,54.2209784 181.709635,54.8686563 184.498728,54.863152 C187.28782,54.8521433 189.584501,54.5072043 191.455664,53.7054047 C192.531536,53.232031 193.194898,52.1329968 193.103848,50.9734147 L192.741508,46.4286603 C192.674614,45.5754868 192.206359,44.7975394 191.47982,44.3333396 C190.753281,43.867305 189.840926,43.7645572 189.027054,44.0507832 C188.369267,44.2801309 187.521948,44.45627 185.93694,44.4599395 C185.3126,44.4581047 184.95026,44.3516874 184.727281,44.2434353 C184.560047,44.1590353 184.444841,44.0746354 184.312912,43.9223485 C184.117806,43.6966703 183.876245,43.2746705 183.694146,42.5499317 C183.512047,41.8288625 183.398699,40.8344108 183.400557,39.6124462 L183.400557,19.9894554 L187.038827,19.9912902 C187.782089,19.9912902 188.482614,19.7032295 189.01033,19.1839863 C189.536189,18.664743 189.826061,17.9730303 189.826061,17.2391176 L189.826061,12.620972 C189.826061,11.8870593 189.536189,11.1953466 189.01033,10.6742686 C188.482614,10.1550253 187.782089,9.86879937 187.038827,9.86879937" id="Fill-15"></path>
                <path d="M221.404679,25.4949015 L207.052282,25.4949015 C207.475942,24.16285 208.063119,22.8748332 208.841687,21.8491902 C209.527346,20.9354689 210.318921,20.2162345 211.231275,19.7226782 C212.147346,19.2272871 213.193488,18.9282177 214.549942,18.9245481 C216.036467,18.9282177 217.091899,19.236461 217.931786,19.6933217 C219.17675,20.3776953 220.070523,21.4950773 220.706013,23.0087723 C221.025616,23.7720415 221.254169,24.6233802 221.404679,25.4949015 M223.985658,11.1267257 C221.55519,9.74146552 218.569133,8.94150068 215.12597,8.94517024 C212.09346,8.94333546 209.248623,9.57816994 206.730821,10.7707781 C202.942041,12.5560207 199.931828,15.5834106 197.923162,19.3502175 C195.908921,23.1243635 194.859062,27.6415962 194.859062,32.5789938 C194.855346,38.890643 196.732084,44.4885621 200.422382,48.5305863 C204.10153,52.5854539 209.55336,54.8844355 215.915687,54.8642529 C222.315176,54.8642529 226.832353,53.4166101 229.430055,52.1762976 C230.63414,51.6020109 231.254765,50.264455 230.911006,48.9892817 L229.760807,44.725249 C229.550835,43.9583102 229.026835,43.3234757 228.304013,42.9693628 C227.58119,42.61525 226.750594,42.5858934 226.005474,42.8904672 C223.688353,43.817032 221.302481,44.6536925 216.779729,44.6720403 C215.28763,44.6720403 213.892155,44.4573708 212.662055,44.0298667 C210.816906,43.3748496 209.343389,42.3088414 208.206197,40.5621292 C207.394183,39.2979646 206.766126,37.6062958 206.461389,35.4027229 L230.158452,35.4027229 C231.613389,35.4027229 232.824906,34.2963495 232.938254,32.8652198 C233.01258,31.9258115 233.090623,30.8249425 233.088765,29.382804 C233.075757,25.608658 232.274892,20.766669 229.602864,16.5430014 C228.264991,14.4421763 226.419843,12.5101512 223.985658,11.1267257" id="Fill-18"></path>
                <path d="M259.290065,9.24534054 C259.094959,9.22515794 258.864548,9.18479274 258.520789,9.12974929 C258.178888,9.07654062 257.72364,9.01599282 257.190349,9.01599282 C254.090945,9.01232325 251.22381,10.1498879 248.953143,11.973661 L248.772902,12.1406261 C248.538774,10.847105 247.405299,9.86916633 246.041413,9.86916633 L240.788406,9.86916633 C240.022845,9.86916633 239.287016,10.182914 238.763016,10.7333485 C238.235299,11.2801135 237.96215,12.0250349 238.006746,12.7809649 C238.218576,16.3991545 238.291044,20.110918 238.291044,24.1988117 L238.291044,42.1558206 C238.291044,42.8915681 238.579058,43.5832808 239.106774,44.102524 C239.632633,44.6217673 240.333157,44.9079932 241.078278,44.9079932 L247.048533,44.9079932 C247.791796,44.9079932 248.490462,44.6217673 249.018179,44.102524 C249.544037,43.5832808 249.833909,42.8915681 249.833909,42.1558206 L249.833909,30.3068001 C249.824618,27.4940797 250.57903,24.7657593 251.822136,22.9676732 C252.440902,22.061291 253.160009,21.3824217 253.960874,20.9255611 C254.769172,20.4705352 255.670377,20.2081614 256.829867,20.2044919 C257.54154,20.2063267 258.030235,20.2577005 258.676874,20.3274222 C259.468448,20.4154918 260.250732,20.169631 260.845342,19.6448834 C261.438094,19.1219706 261.77442,18.3807188 261.77442,17.5935975 L261.77442,11.9810001 C261.77442,10.5792269 260.702264,9.39762742 259.290065,9.24534054" id="Fill-21"></path>
            </g>
        </g>
    </g>
</svg>