<?xml version="1.0" encoding="UTF-8"?>
<svg width="264px" height="58px" viewBox="0 0 264 58" version="1.1" xmlns="http://www.w3.org/2000/svg" xmlns:xlink="http://www.w3.org/1999/xlink">
    <!-- Generator: Sketch 54.1 (76490) - https://sketchapp.com -->
    <title>logo_tickster_color</title>
    <desc>Created with Sketch.</desc>
    <g id="logo_tickster_color" stroke="none" stroke-width="1" fill="none" fill-rule="evenodd">
        <g transform="translate(1.000000, 1.000000)" fill="#243846" id="logo">
            <g>
                <path d="M35.4811177,7.4650156 L2.78686241,7.4650156 C2.05289078,7.4650156 1.33564255,7.76232057 0.815358865,8.2807461 C0.296933333,8.80102979 -0.000371631206,9.51827801 -0.000371631206,10.2522496 L-0.000371631206,15.2878525 C-0.000371631206,16.0311149 0.289500709,16.7316397 0.817217021,17.259356 C1.34307518,17.7852142 2.04174184,18.0750865 2.78686241,18.0750865 L14.2554014,18.0750865 L14.2554014,51.9845759 C14.2554014,52.7278383 14.5452738,53.4283631 15.0729901,53.9560794 C15.5988482,54.4819376 16.2975149,54.7718099 17.0426355,54.7718099 L23.0128908,54.7718099 C23.7561532,54.7718099 24.456678,54.4819376 24.9843943,53.9560794 C25.5102525,53.4283631 25.8001248,52.7278383 25.8001248,51.9845759 L25.8001248,18.0750865 L35.4811177,18.0750865 C36.2243801,18.0750865 36.924905,17.7852142 37.4526213,17.259356 C37.9784794,16.7316397 38.2683518,16.0311149 38.2683518,15.2878525 L38.2683518,10.2522496 C38.2683518,9.50898723 37.9784794,8.80846241 37.4526213,8.2807461 C36.924905,7.75488794 36.2243801,7.4650156 35.4811177,7.4650156" id="Fill-1"></path>
                <path d="M47.969227,2.39317872 C46.0869149,2.38388794 44.325383,3.16059716 43.1212979,4.42600142 C41.9060638,5.68397305 41.2241206,7.40276738 41.2259787,9.20889504 C41.2241206,10.9964411 41.8503191,12.7263844 43.0488298,14.0178028 C44.2343333,15.3166539 46.016305,16.1100865 47.898617,16.0970794 C49.6787305,16.1082284 51.4607021,15.4504411 52.7223901,14.162739 C53.995227,12.8843277 54.651156,11.0707674 54.6400071,9.20889504 C54.6437234,7.46966099 54.0453972,5.75829929 52.8468865,4.4650227 C51.6632411,3.16431348 49.8608298,2.37831348 47.969227,2.39317872" id="Fill-4"></path>
                <path d="M50.9197929,19.2853035 L44.9495376,19.2853035 C44.215566,19.2853035 43.4964596,19.5826085 42.978034,20.101034 C42.4596085,20.6213177 42.1623035,21.338566 42.1623035,22.0725376 L42.1623035,51.9851333 C42.1623035,52.7283957 42.4521759,53.4289206 42.9798922,53.9547787 C43.5057504,54.4806369 44.204417,54.7723674 44.9495376,54.7723674 L50.9197929,54.7723674 C51.6630553,54.7723674 52.3635801,54.4806369 52.8912965,53.9547787 C53.4171546,53.4289206 53.707027,52.7283957 53.707027,51.9851333 L53.707027,22.0725376 C53.707027,21.3292752 53.4171546,20.6287504 52.8912965,20.101034 C52.3635801,19.5751759 51.6630553,19.2853035 50.9197929,19.2853035" id="Fill-6"></path>
                <path d="M92.624061,11.4624667 C91.6410965,10.9514738 90.2251816,10.3735872 88.4023305,9.89604113 C86.5831957,9.42221135 84.3757064,9.05987092 81.9080752,9.05987092 C75.1871248,9.04500567 69.3487986,11.5702397 65.3128837,15.8700128 C61.267678,20.1642113 59.0471816,26.1307504 59.052756,32.7792326 C59.0471816,39.3478142 61.0967277,45.0913745 64.9059475,49.1811759 C68.7021603,53.2802681 74.2041603,55.5788071 80.4680043,55.5620837 C83.2385149,55.5620837 85.6894227,55.1867362 87.7036638,54.6906085 C89.7197631,54.1889064 91.2843305,53.5757149 92.362061,53.0387078 C93.5141177,52.4608213 94.1217348,51.1619702 93.8281461,49.909573 L92.7504156,45.3069206 C92.5627418,44.5004809 92.0183021,43.8129631 91.2768979,43.4469064 C90.5373518,43.0789915 89.6603021,43.0585518 88.9058908,43.394878 C87.0421603,44.2143248 84.9182879,45.0858 81.5494511,45.0988071 C78.2902454,45.0820837 75.7427135,43.9263106 73.8566851,41.8507504 C71.9836638,39.7640411 70.7461319,36.6200411 70.7405574,32.4187504 C70.7368411,28.7265943 71.7959901,25.4265092 73.6262738,23.1762823 C74.5442028,22.0428071 75.6460894,21.1527504 76.9728128,20.5246936 C78.3013943,19.898495 79.869678,19.5268638 81.7649972,19.5250057 C85.0483589,19.5361546 87.0774652,20.4150624 88.4506426,21.1787645 C89.1864723,21.5931333 90.0579475,21.6544525 90.8458057,21.3422823 C91.6318057,21.0319702 92.2282738,20.3927645 92.480983,19.5844667 L93.9898057,14.7644099 C94.3930255,13.4804241 93.8169972,12.0868071 92.624061,11.4624667" id="Fill-8"></path>
                <path d="M118.57098,29.1621461 L131.788044,14.6592383 C132.529448,13.845366 132.722696,12.6635787 132.276739,11.6564582 C131.83264,10.6474794 130.829235,9.99526667 129.727349,9.99526667 L122.534427,9.99526667 C121.716838,9.99526667 120.932696,10.3594652 120.40498,10.9838057 L110.071774,23.2197631 L110.071774,5.58772057 C110.071774,4.84445816 109.781902,4.14393333 109.256044,3.61807518 C108.730186,3.09221702 108.029661,2.80048652 107.28454,2.80048652 L101.314285,2.80048652 C100.580313,2.80048652 99.8630652,3.09964965 99.3427816,3.61807518 C98.824356,4.13650071 98.5270511,4.85560709 98.5270511,5.58772057 L98.5270511,48.2677064 C98.5270511,49.012827 98.8169234,49.7133518 99.3446397,50.2392099 C99.8704979,50.7650681 100.569165,51.0549404 101.314285,51.0549404 L107.28454,51.0549404 C108.029661,51.0549404 108.728328,50.7650681 109.256044,50.2392099 C109.781902,49.7133518 110.071774,49.012827 110.071774,48.2677064 L110.071774,37.7839901 L110.631079,37.1447844 L120.260044,49.8657206 C120.782186,50.6126993 121.631363,51.0549404 122.545576,51.0549404 L129.883434,51.0549404 C130.931434,51.0549404 131.892101,50.4677631 132.367789,49.5331106 C132.843477,48.5966 132.754285,47.4742738 132.137377,46.6269546 L118.57098,29.1621461 Z" id="Fill-10"></path>
                <path d="M159.841555,30.546844 C157.974108,29.0380213 155.751753,27.8692411 153.241384,26.8361064 C150.8072,25.8066879 149.220335,24.9203475 148.504945,24.2402624 C148.140746,23.9039362 147.973512,23.6530851 147.858306,23.3948014 C147.746817,23.1365177 147.666916,22.8206312 147.665058,22.2780496 C147.676207,21.3638369 147.964221,20.7041915 148.490079,20.1969149 C149.021512,19.6970709 149.90042,19.2492553 151.496576,19.2381064 C154.28381,19.2343901 156.433696,20.328844 157.602477,21.0888298 C158.312292,21.5496525 159.181909,21.6648582 159.986491,21.401 C160.789214,21.139 161.424704,20.5332411 161.725725,19.745383 L163.450094,15.2133404 C163.925782,13.9628014 163.45381,12.5580355 162.318477,11.8519362 C159.756079,10.2687872 156.13825,9.06656028 151.8552,9.06098582 C147.313867,9.05541135 143.383867,10.5270709 140.604065,13.0727447 C137.820548,15.6072695 136.254122,19.1953688 136.265271,22.997156 C136.242973,26.0389574 137.42476,28.9302482 139.504037,31.189766 C141.581455,33.4678652 144.44859,35.2238227 148.008817,36.6601773 C150.441143,37.6301348 151.920235,38.5480638 152.609611,39.2913262 C152.964519,39.6648156 153.155909,39.9807021 153.298987,40.3523333 C153.438349,40.7276809 153.52754,41.1866454 153.529399,41.8425745 C153.508959,42.9333121 153.191214,43.6301206 152.527852,44.2321631 C151.8552,44.8230567 150.619526,45.3805035 148.475214,45.3842199 C145.886803,45.4120922 142.813413,44.1689858 141.033299,43.1061206 C140.319767,42.6880355 139.452009,42.6099929 138.675299,42.8924326 C137.89859,43.1748723 137.281682,43.7917801 137.002959,44.5703475 L135.3492,49.173 C134.897668,50.4328298 135.397512,51.8264468 136.547711,52.5102482 C139.714009,54.3814113 143.855838,55.5520496 148.259668,55.5631986 C153.025838,55.5650567 157.176959,54.2792128 160.205753,51.7316809 C163.245696,49.2008723 164.953342,45.3879362 164.929186,41.194078 C164.931044,39.4325461 164.650462,37.7713546 164.080009,36.2476667 C163.225257,33.9584184 161.714576,32.0556667 159.841555,30.546844" id="Fill-12"></path>
                <path d="M187.038827,9.9945234 L183.398699,9.9945234 L183.400557,3.64706241 C183.400557,2.74399858 182.969465,1.90597021 182.235494,1.38011206 C181.499664,0.854253901 180.568728,0.716750355 179.712118,1.00848085 L173.81433,3.02272199 C172.682713,3.40921844 171.928302,4.46465106 171.928302,5.66130355 L171.928302,9.9945234 L170.530969,9.9945234 C169.796997,9.9945234 169.077891,10.2918284 168.559465,10.8102539 C168.04104,11.3305376 167.743735,12.0477858 167.743735,12.7817574 L167.743735,17.4587362 C167.743735,18.2019986 168.033607,18.9025234 168.561323,19.4283816 C169.087182,19.9542397 169.785848,20.2459702 170.530969,20.2459702 L171.928302,20.2459702 L171.928302,39.9721546 C171.946884,42.1406227 171.943167,45.704566 173.5226,49.123573 C174.316033,50.825644 175.585153,52.5091333 177.458174,53.7057858 C179.325621,54.9117291 181.709635,55.5676582 184.498728,55.5620837 C187.28782,55.5509348 189.584501,55.2016014 191.455664,54.3895872 C192.531536,53.910183 193.194898,52.7971475 193.103848,51.6227929 L192.741508,47.0201404 C192.674614,46.1560979 192.206359,45.3682397 191.47982,44.8981262 C190.753281,44.4261546 189.840926,44.3220979 189.027054,44.6119702 C188.369267,44.8442397 187.521948,45.0226227 185.93694,45.026339 C185.3126,45.0244809 184.95026,44.9167078 184.727281,44.8070766 C184.560047,44.7216014 184.444841,44.6361262 184.312912,44.4818993 C184.117806,44.2533461 183.876245,43.8259702 183.694146,43.0919986 C183.512047,42.3617433 183.398699,41.3546227 183.400557,40.1170908 L183.400557,20.2441121 L187.038827,20.2459702 C187.782089,20.2459702 188.482614,19.9542397 189.01033,19.4283816 C189.536189,18.9025234 189.826061,18.2019986 189.826061,17.4587362 L189.826061,12.7817574 C189.826061,12.038495 189.536189,11.3379702 189.01033,10.8102539 C188.482614,10.2843957 187.782089,9.9945234 187.038827,9.9945234" id="Fill-15"></path>
                <path d="M221.404679,25.819695 L207.052282,25.819695 C207.475942,24.4706738 208.063119,23.1662482 208.841687,22.127539 C209.527346,21.2021773 210.318921,20.4737801 211.231275,19.9739362 C212.147346,19.472234 213.193488,19.1693546 214.549942,19.1656383 C216.036467,19.1693546 217.091899,19.4815248 217.931786,19.9442057 C219.17675,20.6372979 220.070523,21.7689149 220.706013,23.3018936 C221.025616,24.0748865 221.254169,24.9370709 221.404679,25.819695 M223.985658,11.2684752 C221.55519,9.86556738 218.569133,9.05541135 215.12597,9.05912766 C212.09346,9.0572695 209.248623,9.70019149 206.730821,10.9079929 C202.942041,12.7159787 199.931828,15.7819362 197.923162,19.5967305 C195.908921,23.4189574 194.859062,27.9937376 194.859062,32.9940355 C194.855346,39.3860922 196.732084,45.0553262 200.422382,49.148844 C204.10153,53.2553688 209.55336,55.5836383 215.915687,55.5631986 C222.315176,55.5631986 226.832353,54.0971135 229.430055,52.841 C230.63414,52.2593972 231.254765,50.9048014 230.911006,49.613383 L229.760807,45.2950284 C229.550835,44.5183191 229.026835,43.8753972 228.304013,43.516773 C227.58119,43.1581489 226.750594,43.1284184 226.005474,43.4368723 C223.688353,44.3752411 221.302481,45.2225603 216.779729,45.2411418 C215.28763,45.2411418 213.892155,45.0237376 212.662055,44.5907872 C210.816906,43.9274255 209.343389,42.8478369 208.206197,41.0788723 C207.394183,39.7986028 206.766126,38.085383 206.461389,35.8537376 L230.158452,35.8537376 C231.613389,35.8537376 232.824906,34.7332695 232.938254,33.2839078 C233.01258,32.3325319 233.090623,31.2176383 233.088765,29.7571277 C233.075757,25.9349007 232.274892,21.031227 229.602864,16.7537518 C228.264991,14.6261631 226.419843,12.6695248 223.985658,11.2684752" id="Fill-18"></path>
                <path d="M259.290065,9.36312199 C259.094959,9.34268227 258.864548,9.30180284 258.520789,9.24605816 C258.178888,9.19217163 257.72364,9.13085248 257.190349,9.13085248 C254.090945,9.12713617 251.22381,10.2791929 248.953143,12.1262 L248.772902,12.2952922 C248.538774,10.9852922 247.405299,9.99489504 246.041413,9.99489504 L240.788406,9.99489504 C240.022845,9.99489504 239.287016,10.3126397 238.763016,10.8700865 C238.235299,11.423817 237.96215,12.1782284 238.006746,12.9437887 C238.218576,16.6080723 238.291044,20.367122 238.291044,24.5070936 L238.291044,42.6928667 C238.291044,43.4379872 238.579058,44.1385121 239.106774,44.6643702 C239.632633,45.1902284 240.333157,45.4801007 241.078278,45.4801007 L247.048533,45.4801007 C247.791796,45.4801007 248.490462,45.1902284 249.018179,44.6643702 C249.544037,44.1385121 249.833909,43.4379872 249.833909,42.6928667 L249.833909,30.692895 C249.824618,27.8443418 250.57903,25.0812638 251.822136,23.2602709 C252.440902,22.3423418 253.160009,21.6548241 253.960874,21.1921433 C254.769172,20.7313206 255.670377,20.4656043 256.829867,20.4618879 C257.54154,20.4637461 258.030235,20.5157745 258.676874,20.5863844 C259.468448,20.6755759 260.250732,20.426583 260.845342,19.8951504 C261.438094,19.3655759 261.77442,18.6148809 261.77442,17.8177319 L261.77442,12.1336326 C261.77442,10.7140014 260.702264,9.51734894 259.290065,9.36312199" id="Fill-21"></path>
            </g>
        </g>
    </g>
</svg>